<?xml version="1.0" encoding="utf-8"?>
<!-- Generator: Adobe Illustrator 16.0.4, SVG Export Plug-In . SVG Version: 6.00 Build 0)  -->
<!DOCTYPE svg PUBLIC "-//W3C//DTD SVG 1.1//EN" "http://www.w3.org/Graphics/SVG/1.1/DTD/svg11.dtd">
<svg version="1.1" id="Layer_1" xmlns="http://www.w3.org/2000/svg" xmlns:xlink="http://www.w3.org/1999/xlink" x="0px" y="0px"
	 width="283.118px" height="349.104px" viewBox="0 0 283.118 349.104" enable-background="new 0 0 283.118 349.104"
	 xml:space="preserve">
<g>
	<path fill="#F2EDE9" d="M247.213,249.884c-6.668-37.333-18.668-77.333-39.334-109.333c-0.666,8,2.666,18,0.666,26
		c-8-12.667-6.666-25.334-10.666-40.001c-6.666-21.332-18-38-32-55.333c4.666,6.667,8.666,18.667,8,26.667
		c-20.666-21.333-37.333-52.667-66-65.333c2.666,5.333,4.666,10.667,5.333,16c-20.667-8-37.333-28-58-38
		c-14.667-6-26-7.333-40.667-9.333c6.667,6,14,11.333,18,19.333c-8,6-22,2.667-31.333,0.667c9.333,22,36,36,54,49.333
		c-8.667,0-18-2-26-5.333c7.333,13.333,26,21.333,38,30c12,8,19.333,15.333,26,27.333c-18-8-30.667-15.332-44.667-30
		c6,20.667,18,38.667,34,54c13.334,13.333,30.667,20.666,44.667,32.666c-6-0.666-13.333-2.666-20-4.666
		c11.333,18,26,24.666,42,37.333c-15.333,3.333-2,14,6,18c12.666,6,27.332,7.333,40,14.667c18,10.666,34.666,23.333,52.666,34
		c0.666-10,0-22-1.334-32"/>
	<g>
		<path fill="#F1EDE9" d="M248.418,249.552c-6.91-38.279-18.355-76.632-39.46-109.632c-0.683-1.068-2.264-0.616-2.329,0.631
			c-0.453,8.583,2.475,17.137,0.711,25.668c0.762-0.1,1.522-0.199,2.284-0.299c-4.7-7.786-6.339-16.245-7.695-25.107
			c-1.381-9.022-3.419-17.535-6.999-25.96c-6.943-16.337-17.089-30.749-28.167-44.519c-0.893-1.109-2.746,0.343-1.963,1.515
			c4.971,7.436,8.309,17.021,7.829,26.036c0.711-0.294,1.423-0.589,2.134-0.884c-21.416-22.333-36.959-52.203-66.252-65.529
			c-1.15-0.523-2.279,0.538-1.71,1.71c2.459,5.065,4.358,10.127,5.207,15.702c0.513-0.513,1.025-1.025,1.538-1.538
			C96.424,40.465,83.094,27,68.092,16.674C52.06,5.641,33.791,2.583,14.878,0.012c-1.105-0.15-2.264,1.157-1.216,2.089
			c6.556,5.835,13.59,11.19,17.804,19.08c0.15-0.57,0.299-1.14,0.449-1.71c-8.786,5.962-20.812,2.599-30.37,0.541
			c-1.143-0.246-1.855,0.834-1.412,1.836C10.408,45.079,35.1,57.314,54.582,71.63c0.21-0.777,0.42-1.553,0.631-2.33
			c-8.874-0.135-17.444-1.99-25.667-5.289c-1.067-0.428-1.917,0.966-1.412,1.836c6.796,11.708,19.442,18.4,30.593,25.28
			c13.657,8.428,25.405,17.919,33.407,32.052c0.57-0.57,1.141-1.14,1.71-1.71c-16.714-7.476-31.619-16.555-44.414-29.804
			c-0.865-0.896-2.447,0.017-2.089,1.216c5.487,18.381,15.531,34.642,28.513,48.677c6.973,7.538,14.732,13.957,23.233,19.687
			c9.173,6.183,18.751,11.711,27.242,18.854c0.294-0.711,0.589-1.423,0.884-2.134c-6.698-0.85-13.211-2.702-19.667-4.621
			c-1.027-0.306-2.009,0.91-1.412,1.836c10.66,16.516,27.092,25.751,42.196,37.586c0.184-0.696,0.367-1.393,0.552-2.089
			c-6.783,1.691-10.214,5.861-5.463,11.952c6.018,7.714,16.836,10.957,25.733,13.621c7.021,2.103,14.077,3.984,20.791,6.979
			c6.592,2.94,12.676,7.284,18.703,11.216c12.871,8.396,25.4,17.301,38.603,25.184c0.854,0.51,1.826-0.157,1.881-1.079
			c0.631-10.682,0.029-21.396-1.334-32c-0.202-1.576-2.705-1.596-2.5,0c1.363,10.604,1.965,21.318,1.334,32
			c0.627-0.359,1.254-0.72,1.881-1.079c-10.031-5.99-19.7-12.541-29.393-19.059c-9.499-6.388-19.174-13.75-29.79-18.171
			c-10.916-4.546-22.712-6.52-33.483-11.438c-3.404-1.555-6.594-3.917-9.297-6.47c-1.358-1.283-2.524-2.781-3.06-4.589
			c-0.915-3.101,4.077-4.163,6.058-4.657c0.838-0.209,1.306-1.498,0.552-2.089c-14.887-11.665-31.298-20.802-41.805-37.08
			c-0.471,0.612-0.941,1.225-1.412,1.836c6.685,1.987,13.401,3.832,20.333,4.711c1.071,0.136,1.675-1.469,0.884-2.134
			c-15.06-12.671-32.944-21.041-47.037-34.986c-14.41-14.26-25.497-31.66-31.309-51.129c-0.697,0.406-1.393,0.811-2.089,1.216
			c12.938,13.398,28.001,22.628,44.92,30.195c1.094,0.49,2.374-0.539,1.71-1.71c-7.098-12.535-16.819-21.183-28.568-29.261
			c-12.259-8.43-27.65-14.665-35.432-28.071c-0.471,0.612-0.941,1.224-1.412,1.836c8.429,3.38,17.248,5.239,26.333,5.377
			c1.344,0.021,1.571-1.639,0.631-2.33C36.678,55.388,12.395,43.428,2.292,20.586c-0.471,0.612-0.941,1.224-1.412,1.836
			c10.209,2.197,22.91,5.576,32.296-0.793c0.58-0.394,0.786-1.078,0.449-1.71c-4.316-8.08-11.474-13.603-18.196-19.586
			c-0.405,0.696-0.811,1.393-1.216,2.089c9.593,1.304,19.161,2.593,28.519,5.142c9.869,2.688,18.408,7.245,26.725,13.097
			c14.274,10.043,27.002,22.496,43.423,29.095c0.99,0.397,1.663-0.718,1.538-1.538c-0.88-5.774-2.92-11.069-5.459-16.298
			c-0.57,0.57-1.141,1.14-1.71,1.71c29.073,13.226,44.489,42.97,65.747,65.138c0.792,0.826,2.078,0.163,2.134-0.884
			c0.502-9.437-2.964-19.508-8.171-27.297c-0.654,0.505-1.309,1.01-1.963,1.515c11.574,14.388,22.074,29.531,28.889,46.795
			c6.196,15.698,4.724,33.612,13.582,48.285c0.529,0.877,2.058,0.8,2.284-0.299c1.818-8.793-1.087-17.498-0.621-26.332
			c-0.776,0.21-1.553,0.42-2.329,0.631c20.995,32.831,32.333,70.952,39.208,109.034
			C246.294,251.801,248.703,251.127,248.418,249.552L248.418,249.552z"/>
	</g>
</g>
<g>
	<path fill="#E7E4E1" d="M281.872,345.566c-7.453-18.162-17.287-39.956-26.604-58.116c-17.391-34.145-33.378-61.749-55.114-92.26
		c-12.423-18.162-32.24-44.314-47.144-59.569c-6.836-7.264-71.121-85.74-81.677-84.287c27.164,33.48,105.582,121.219,133.47,161.291
		c22.411,32.206,41.666,69.74,60.922,104.61c4.348,8.717,9.315,26.878,16.768,31.236c-0.621-2.18-1.241-4.358-1.862-5.812"/>
	<g>
		<path fill="#E7E4E1" d="M282.475,345.4c-22.227-53.985-50.169-104.734-83.306-152.742c-20.336-29.461-44.242-55.852-67.584-82.882
			c-11.735-13.59-23.6-27.104-36.126-39.975c-4.839-4.972-9.792-9.893-15.179-14.276c-2.26-1.839-5.747-5.089-8.947-4.816
			c-0.568,0.049-0.794,0.633-0.442,1.067c53.02,65.251,113.896,125.166,156.721,198.028c11.551,19.651,22.263,39.782,33.196,59.779
			c4.069,7.443,7.236,14.932,10.53,22.729c2.496,5.907,5.229,13.039,10.839,16.7c0.466,0.304,1.064-0.195,0.918-0.706
			c-0.562-1.962-1.132-3.906-1.862-5.812c-0.285-0.745-1.494-0.422-1.205,0.332c0.73,1.907,1.3,3.851,1.862,5.812
			c0.306-0.235,0.612-0.471,0.918-0.706c-8.569-5.592-11.443-19.277-15.219-28.137c-2.543-5.967-6.108-11.577-9.21-17.269
			c-3.828-7.023-7.644-14.054-11.487-21.068c-13.738-25.077-27.82-50.153-44.556-73.384c-24.205-33.601-51.915-64.823-78.82-96.251
			c-17.323-20.235-34.941-40.255-51.741-60.931c-0.147,0.355-0.294,0.711-0.442,1.067c3.478-0.297,7.727,4.126,10.071,6.124
			c5.354,4.563,10.299,9.616,15.178,14.674c12.026,12.47,23.439,25.535,34.759,38.644c7.075,8.193,13.84,16.745,21.227,24.662
			c17.742,19.014,33.071,39.772,48.11,60.941c32.679,45.997,59.132,96.609,80.591,148.729
			C281.572,346.467,282.781,346.146,282.475,345.4L282.475,345.4z"/>
	</g>
</g>
</svg>
