<?xml version="1.0" encoding="utf-8"?>
<!-- Generator: Adobe Illustrator 16.0.4, SVG Export Plug-In . SVG Version: 6.00 Build 0)  -->
<!DOCTYPE svg PUBLIC "-//W3C//DTD SVG 1.1//EN" "http://www.w3.org/Graphics/SVG/1.1/DTD/svg11.dtd">
<svg version="1.1" id="Layer_1" xmlns="http://www.w3.org/2000/svg" xmlns:xlink="http://www.w3.org/1999/xlink" x="0px" y="0px"
	 width="341.052px" height="557.822px" viewBox="0 0 341.052 557.822" enable-background="new 0 0 341.052 557.822"
	 xml:space="preserve">
<g>
	<path fill="#FEE4D2" d="M318.114,249.178c-11.646,35.769-8.674,76.325-6.752,113.286c0.936,17.993,4.37,87.906,2.666,105.869
		c-1.005,10.584,2.451,84.549-7.851,84.6c-11.524,0.053,6.83,1.625-4.695,1.602c-17.204-0.037-36.116,1.863-52.915-0.029
		c-3.617-0.406-28.352,0.396-50.565-0.203c-21.822-0.588-47.959,0.678-69.714-0.002c-13.676-0.43-35.078-0.619-48.717-1.084
		c-7.66-0.26-15.547-0.262-19.205-8.449c-2.456-5.494-12.365-108.529-13.385-115.002c-2.721-17.299-10.931-61.353-15.958-78.113
		c-5.88-21.84-16.67-64.867-20.869-87.546c-4.202-22.872,5.604-40.999-7.016-104.8c-2.444-12.36,0-49.557,23.518-39.477
		c17.639,7.559,13.552,64.606,21.112,78.885c15.958,31.078,15.846-52.006,14.167-62.926c-3.361-15.958-9.24-34.437-3.361-49.557
		C70.333,55.152,93.851,74.47,99.73,97.149c4.2,18.478,5.88,37.797,11.759,55.436c4.199,12.6,10.919,20.159,16.799,5.04
		c3.36-7.56,0.84-20.998,0.84-29.397c0-19.318-3.359-38.637-3.359-57.116c0-13.439,0.839-31.918,15.119-37.797
		c22.677-8.399,28.557,18.478,31.077,34.437c3.36,16.798,5.88,32.758,6.72,50.396c0.839,11.759-1.68,31.917,5.879,41.157
		c17.639-12.599,14.281-51.236,12.6-69.714c-0.84-15.96-6.72-47.037,5.879-61.316c17.64-20.998,32.758,11.759,35.278,27.718
		c2.519,17.638,1.68,36.957,0,54.596c0,9.239-8.399,54.596,8.399,41.156c13.439-10.919,15.119-46.196,15.958-61.314
		c1.679-29.398,20.999-127.67,63.837-70.555c26.037,35.277,3.358,82.314-3.359,119.272
		C316.434,176.943,329.873,213.06,318.114,249.178z"/>
	<g>
		<path fill="#FEE4D2" d="M315.703,248.513c-14.856,46.635-7.414,97.379-5.355,145.403c0.846,19.722,1.642,39.472,1.647,59.215
			c0.004,11.497-0.692,22.956-0.665,34.464c0.035,14.526,0.062,29.096-1.076,43.588c-0.421,5.358-0.961,10.827-2.537,15.988
			c-0.321,1.052-0.831,2.751-1.758,3.325c-0.565,0.35-3.659-0.359-5.018,0.553c-0.927,0.622-1.479,1.699-1.149,2.823
			c0.346,1.18,1.251,1.712,2.35,2.047c0.454,0.139,0.926,0.229,1.388,0.338c1.758,0.41,0.066,0.483-0.482-1.292
			c0.383-0.941,0.766-1.882,1.149-2.823c0.973-0.607-0.003-0.15-0.68-0.127c-1.271,0.045-2.549,0.02-3.82,0.021
			c-3.64,0.006-7.279,0.117-10.917,0.229c-8.025,0.245-16.044,0.587-24.075,0.577c-10.088-0.014-20.07-0.99-30.173-0.903
			c-28.572,0.246-57.14-0.15-85.715,0.05c-13.119,0.091-26.226-0.373-39.34-0.617c-12.038-0.224-24.245,0.064-36.245-0.994
			c-7.351-0.648-10.462-4.827-11.501-11.296c-0.908-5.651-1.569-11.345-2.25-17.026c-3.543-29.553-6.251-59.196-9.567-88.773
			c-3.935-35.102-13.364-69.551-22.058-103.68c-5.635-22.122-11.414-44.373-15.414-66.861c-2.245-12.621-0.271-25.854-0.087-38.569
			c0.143-9.902-0.367-19.794-1.334-29.648c-1.246-12.691-4.149-25.073-5.764-37.683c-1.341-10.47-0.619-36.529,14.7-36.207
			c8.128,0.171,11.849,7.03,14.113,13.81c2.877,8.617,3.932,17.867,4.963,26.849c0.997,8.681,1.711,17.4,3.063,26.037
			c0.94,6.004,2.404,11.78,6.009,16.774c1.982,2.746,5.482,5.506,8.831,3.099c3.419-2.458,4.423-7.608,5.234-11.452
			c2.925-13.852,3.039-28.503,3.002-42.602c-0.013-5.245-0.075-10.521-0.546-15.749c-1.07-11.877-5.606-23.082-6.04-35.148
			c-0.343-9.547,3.545-28.387,15.689-29.674c8.9-0.943,15.913,9.124,19.481,15.856c6.312,11.914,6.915,27.062,9.31,40.122
			c2.216,12.085,4.279,26.634,12.016,36.622c1.948,2.514,4.982,3.872,8.08,2.983c4.454-1.278,6.493-7.218,7.979-10.99
			c1.955-4.959,1.486-11.039,1.216-16.227c-0.356-6.824-0.646-13.613-0.891-20.442c-0.8-22.339-6.365-45.873-1.682-68.082
			c1.929-9.147,7.123-16.188,16.623-18.013c8.274-1.59,13.837,4.754,17.123,11.437c3.15,6.407,4.539,13.738,5.725,20.722
			c2.16,12.723,4.653,25.299,5.953,38.159c1.062,10.503,1.024,20.921,1.258,31.45c0.183,8.215,0.789,17.604,5.94,24.393
			c0.745,0.983,2.237,1.785,3.42,0.897c15.41-11.573,15.651-35.093,15.15-52.526c-0.568-19.75-4.715-39.595-3.036-59.36
			c0.769-9.049,4.949-24.295,15.996-25.591c8.984-1.053,15.114,12.07,17.879,18.654c4.684,11.15,5.373,23.145,5.577,35.109
			c0.208,12.155-0.776,24.309-1.773,36.409c-0.588,7.141-1.497,14.242-1.81,21.406c-0.25,5.73-0.67,12.957,2.418,18.083
			c2.953,4.899,8.731,2.89,12.261-0.135c6.766-5.798,9.774-14.927,11.885-23.294c4.112-16.293,3.708-33.061,5.739-49.617
			c1.867-15.226,5.246-30.46,10.341-44.934c3.778-10.736,10.064-27.26,22.479-30.489c6.165-1.604,12.217,2.329,16.627,6.19
			c8.943,7.83,15.274,18.441,18.41,29.841c6.977,25.363-2.276,52.816-8.644,77.319c-3.353,12.902-5.997,25.72-6.549,39.078
			c-0.624,15.094,1.003,30.192,1.653,45.258C321.096,218.303,320.364,233.683,315.703,248.513c-0.969,3.084,3.858,4.394,4.822,1.329
			c9.098-28.951,2.867-58.929,3.158-88.572c0.269-27.317,10.808-52.779,15.467-79.415c4.237-24.224,2.143-48.22-14.018-67.722
			c-7.92-9.558-20.154-18.606-32.623-11.709c-11.398,6.305-17.13,21.26-21.196,32.813c-5.061,14.38-8.143,29.512-10.106,44.607
			c-2.187,16.802-1.785,33.705-5.964,50.266c-1.783,7.066-5.277,19.16-13.355,21.551c-3.604,1.067-3.172-12.595-3.139-14.249
			c0.366-18.702,3.519-37.216,3.659-55.971c0.147-19.538-1.637-44.716-17.838-58.493c-5.887-5.006-13.602-5.161-19.559-0.145
			c-7.771,6.545-10.743,15.661-11.938,25.463c-2.387,19.588,2.07,39.833,2.859,59.449c0.621,15.43,1.229,39.021-12.631,49.43
			c1.14,0.299,2.28,0.598,3.42,0.897c-6.734-8.877-5.304-22.26-5.332-32.764c-0.037-13.919-1.752-27.857-3.965-41.58
			c-1.757-10.891-3.379-22.202-6.619-32.78c-2.314-7.554-6.108-15.31-13.133-19.465c-7.508-4.441-17.329-1.838-23.758,3.224
			c-7.535,5.932-9.496,16.733-10.292,25.685c-1.207,13.59,0.306,27.371,1.493,40.904c1.246,14.205,1.822,28.493,2.379,42.738
			c0.25,6.402-0.389,13.152-4.577,18.344c-4.016,4.979-8.865-9.955-9.575-12.14c-4.708-14.496-6.53-29.799-9.339-44.727
			c-1.999-10.621-4.976-20.16-11.979-28.583c-4.535-5.455-11.804-10.468-19.25-9.143c-9.419,1.676-14.223,11.182-17.163,19.333
			c-4.521,12.535-1.112,27.029,1.706,39.532c1.505,6.679,2.532,12.137,2.735,18.966c0.206,6.897,0.144,13.804-0.07,20.699
			c-0.231,7.428-0.655,14.888-1.647,22.257c-0.573,4.254-0.983,10.505-3.746,14.052c-0.618,0.794-0.371,0.783-1.261-0.023
			c-1.854-1.681-3.21-4.373-4.093-6.673c-2.673-6.962-3.087-14.967-3.882-22.304c-1.733-15.992-1.742-35.522-10.563-49.584
			c-3.547-5.655-9.873-8.632-16.511-8.36c-6.775,0.277-11.498,5.581-14.152,11.338c-7.631,16.557-2.841,34.146-0.2,51.139
			c3.067,19.732,3.881,39.466,2.996,59.387c-0.271,6.1-0.582,12.206-0.25,18.31c0.419,7.717,2.273,15.322,3.894,22.851
			c4.939,22.939,10.664,45.729,16.651,68.415c8.173,30.965,15.293,63.315,18.576,94.37c3.245,30.687,6.033,61.455,10.123,92.044
			c0.502,3.758,0.871,7.638,1.834,11.315c2.251,8.592,11.737,10.46,19.264,10.808c25.624,1.186,51.49,1.566,77.137,1.317
			c28.085-0.273,56.151,0.185,84.234-0.036c10.645-0.084,21.195,1.031,31.85,0.903c7.407-0.088,14.81-0.448,22.215-0.653
			c3.385-0.094,6.769-0.117,10.154-0.128c1.184-0.003,2.953,0.154,4.02-0.512c0.031-0.02,0.063-0.039,0.095-0.059
			c0.931-0.582,1.485-1.733,1.148-2.823c-0.363-1.176-1.24-1.706-2.349-2.035c-0.455-0.136-0.926-0.228-1.388-0.335
			c-1.768-0.414-0.035-0.488,0.481,1.277c-0.383,0.941-0.766,1.882-1.148,2.823c-0.873,0.586,2.053,0.111,2.983,0.047
			c0.823-0.057,1.579-0.318,2.279-0.752c1.685-1.043,2.541-2.924,3.278-4.671c2.312-5.479,2.655-12.035,3.171-17.88
			c1.458-16.524,1.179-33.201,1.141-49.772c-0.027-11.792,0.756-23.532,0.647-35.329c-0.184-19.988-1.026-39.977-1.916-59.944
			c-2.024-45.411-8.575-93.119,5.477-137.223C321.507,246.761,316.679,245.453,315.703,248.513z"/>
	</g>
</g>
<g>
	<path fill="#F1584D" d="M27.384,125.852c5.417,7.239,4.167,15.757-5,17.887c-11.666,2.981-15-0.852-15-11.925l0,0
		C12.802,126.704,20.718,122.871,27.384,125.852"/>
	<g>
		<path fill="#F1594C" d="M26.305,126.483c2.936,4.164,4.638,9.62,0.606,13.697c-2.979,3.012-10.64,4.355-14.545,2.604
			c-3.495-1.568-3.617-6.716-3.72-9.921c-0.076-2.337,6.867-5.192,8.603-5.859c3.238-1.245,6.599-1.188,9.804,0.054
			c1.506,0.583,2.151-1.835,0.665-2.411c-3.732-1.446-7.359-1.248-11.133-0.053c-3.17,1.003-8.516,3.581-10.278,6.59
			c-1.12,1.911,0.209,6.75,0.839,8.787c0.659,2.132,2.025,3.876,3.959,4.972c4.493,2.545,13.134,0.692,16.874-2.413
			c5.596-4.647,4.278-11.93,0.486-17.308C27.542,123.915,25.374,125.162,26.305,126.483L26.305,126.483z"/>
	</g>
</g>
<g>
	<path fill="#F1584D" d="M85.338,79.389c6.083,7.757,5.106,16.454-5.189,18.735c-13.103,3.194-17.273-0.482-17.273-12.347l0,0
		C68.96,80.301,77.849,76.194,85.338,79.389"/>
	<g>
		<path fill="#F1594C" d="M84.259,80.02c3.542,4.781,5.688,11.348-0.203,15.291c-3.76,2.518-11.395,3.726-15.665,1.909
			c-2.826-1.203-6.338-9.082-3.591-11.458c5.483-4.743,13.128-7.784,20.206-5.167c1.516,0.56,2.164-1.857,0.665-2.411
			c-4.171-1.542-8.208-1.33-12.422-0.057c-3.434,1.037-9.541,3.758-11.451,7.02c-1.111,1.896,0.245,6.727,0.854,8.733
			c0.726,2.391,2.293,4.318,4.479,5.499c5.097,2.753,15.078,0.811,19.32-2.692c5.954-4.916,4.048-12.422-0.032-17.928
			C85.469,77.478,83.297,78.723,84.259,80.02L84.259,80.02z"/>
	</g>
</g>
<g>
	<path fill="#F1584D" d="M228.04,35.913c3.749,10.217,1.574,15.307-8.504,17.936c-11.5,3-15.542-3.531-18.666-13.432l0,0
		C205.312,32.589,217.878,29.048,228.04,35.913"/>
	<g>
		<path fill="#F1594C" d="M226.835,36.245c1.812,5.202,3.092,10.871-2.26,14.319c-4.832,3.113-12.453,4.178-16.993,0.188
			c-2.024-1.779-3.23-4.543-4.223-6.979c-1.494-3.668-0.009-5.242,3.09-7.419c6.337-4.452,14.759-3.24,20.96,0.638
			c1.371,0.858,2.625-1.306,1.262-2.158c-7.628-4.771-16.989-5.202-24.491,0.069c-2.372,1.667-5.076,4.12-4.102,7.118
			c1.147,3.533,2.668,6.898,5.041,9.777c4.909,5.956,13.674,4.224,19.773,1.437c7.405-3.384,6.619-11.147,4.353-17.653
			C228.719,34.068,226.303,34.718,226.835,36.245L226.835,36.245z"/>
	</g>
</g>
<g>
	<path fill="#F1584D" d="M157.393,39.446c4.928,7.212,2.141,18.448-7.08,19.187C136.675,59.725,133.3,56.07,133.3,45.041l0,0
		C138.228,39.95,151.327,36.476,157.393,39.446"/>
	<g>
		<path fill="#F1594C" d="M156.313,40.077c3.25,5.22,3.182,12.61-2.411,16.215c-4,2.578-13.296,2.033-16.847-1.279
			c-1.385-1.291-1.845-3.309-2.188-5.086c-0.744-3.849,0.146-5.106,3.511-6.97c5.239-2.901,12.98-4.702,18.683-2.305
			c1.485,0.625,2.127-1.796,0.664-2.411c-7.354-3.092-17.317-0.013-23.521,4.376c-4.291,3.036-1.955,11.922,1.857,14.845
			c5.021,3.85,14.793,3.766,19.971,0.429c6.322-4.075,5.972-13.403,2.439-19.076C157.622,37.45,155.459,38.704,156.313,40.077
			L156.313,40.077z"/>
	</g>
</g>
<g>
	<path fill="#F1584D" d="M283.063,23.431c0,0-9.737,26.836,2.973,34.386c6.469,3.842,16.933,4.043,23.316,2.145
		c13.398-3.983,15.967-18.981,15.967-32.085l0,0C318.127,13.354,296.754,5.845,283.063,23.431z"/>
	<g>
		<path fill="#F1594C" d="M281.858,23.098c-3.197,8.918-5.553,20.398-1.858,29.455c5.12,12.554,27.843,12.691,36.859,4.835
			c5.575-4.857,7.911-11.75,9.01-18.878c0.479-3.103,1.5-7.897,0.655-10.966c-0.801-2.912-3.746-5.905-5.823-7.961
			c-11.505-11.387-28.693-9.077-38.521,2.964c-1.01,1.237,0.748,3.018,1.768,1.768c9.277-11.365,23.991-12.96,34.986-2.964
			c1.964,1.786,5.146,4.946,5.128,7.8c-0.022,3.339-0.291,6.671-0.799,9.97c-1.068,6.928-3.859,13.711-9.878,17.698
			c-6.113,4.049-15.119,3.63-21.892,1.921c-6.786-1.712-9.932-6.545-10.627-13.192c-0.751-7.189,0.977-15.018,3.402-21.783
			C284.814,22.242,282.398,21.592,281.858,23.098z"/>
	</g>
</g>
</svg>
