<?xml version="1.0" encoding="utf-8"?>
<!-- Generator: Adobe Illustrator 16.0.4, SVG Export Plug-In . SVG Version: 6.00 Build 0)  -->
<!DOCTYPE svg PUBLIC "-//W3C//DTD SVG 1.1//EN" "http://www.w3.org/Graphics/SVG/1.1/DTD/svg11.dtd">
<svg version="1.1" id="Layer_1" xmlns="http://www.w3.org/2000/svg" xmlns:xlink="http://www.w3.org/1999/xlink" x="0px" y="0px"
	 width="341.052px" height="557.822px" viewBox="0 0 341.052 557.822" enable-background="new 0 0 341.052 557.822"
	 xml:space="preserve">
<g>
	<path fill="#F1584D" d="M27.384,125.852c5.417,7.239,4.167,15.757-5,17.887c-11.666,2.981-15-0.852-15-11.925l0,0
		C12.802,126.704,20.718,122.871,27.384,125.852"/>
	<g>
		<path fill="#F1594C" d="M26.305,126.483c2.936,4.164,4.638,9.62,0.606,13.697c-2.979,3.012-10.64,4.355-14.545,2.604
			c-3.495-1.568-3.617-6.716-3.72-9.921c-0.076-2.337,6.867-5.192,8.603-5.859c3.238-1.245,6.599-1.188,9.804,0.054
			c1.506,0.583,2.151-1.835,0.665-2.411c-3.732-1.446-7.359-1.248-11.133-0.053c-3.17,1.003-8.516,3.581-10.278,6.59
			c-1.12,1.911,0.209,6.75,0.839,8.787c0.659,2.132,2.025,3.876,3.959,4.972c4.493,2.545,13.134,0.692,16.874-2.413
			c5.596-4.647,4.278-11.93,0.486-17.308C27.542,123.915,25.374,125.162,26.305,126.483L26.305,126.483z"/>
	</g>
</g>
<g>
	<path fill="#F1584D" d="M85.338,79.389c6.083,7.757,5.106,16.454-5.189,18.735c-13.103,3.194-17.273-0.482-17.273-12.347l0,0
		C68.96,80.301,77.849,76.194,85.338,79.389"/>
	<g>
		<path fill="#F1594C" d="M84.259,80.02c3.542,4.781,5.688,11.348-0.203,15.291c-3.76,2.518-11.395,3.726-15.665,1.909
			c-2.826-1.203-6.338-9.082-3.591-11.458c5.483-4.743,13.128-7.784,20.206-5.167c1.516,0.56,2.164-1.857,0.665-2.411
			c-4.171-1.542-8.208-1.33-12.422-0.057c-3.434,1.037-9.541,3.758-11.451,7.02c-1.111,1.896,0.245,6.727,0.854,8.733
			c0.726,2.391,2.293,4.318,4.479,5.499c5.097,2.753,15.078,0.811,19.32-2.692c5.954-4.916,4.048-12.422-0.032-17.928
			C85.469,77.478,83.297,78.723,84.259,80.02L84.259,80.02z"/>
	</g>
</g>
<g>
	<path fill="#F1584D" d="M228.04,35.913c3.749,10.217,1.574,15.307-8.504,17.936c-11.5,3-15.542-3.531-18.666-13.432l0,0
		C205.312,32.589,217.878,29.048,228.04,35.913"/>
	<g>
		<path fill="#F1594C" d="M226.835,36.245c1.812,5.202,3.092,10.871-2.26,14.319c-4.832,3.113-12.453,4.178-16.993,0.188
			c-2.024-1.779-3.23-4.543-4.223-6.979c-1.494-3.668-0.009-5.242,3.09-7.419c6.337-4.452,14.759-3.24,20.96,0.638
			c1.371,0.858,2.625-1.306,1.262-2.158c-7.628-4.771-16.989-5.202-24.491,0.069c-2.372,1.667-5.076,4.12-4.102,7.118
			c1.147,3.533,2.668,6.898,5.041,9.777c4.909,5.956,13.674,4.224,19.773,1.437c7.405-3.384,6.619-11.147,4.353-17.653
			C228.719,34.068,226.303,34.718,226.835,36.245L226.835,36.245z"/>
	</g>
</g>
<g>
	<path fill="#F1584D" d="M157.393,39.446c4.928,7.212,2.141,18.448-7.08,19.187C136.675,59.725,133.3,56.07,133.3,45.041l0,0
		C138.228,39.95,151.327,36.476,157.393,39.446"/>
	<g>
		<path fill="#F1594C" d="M156.313,40.077c3.25,5.22,3.182,12.61-2.411,16.215c-4,2.578-13.296,2.033-16.847-1.279
			c-1.385-1.291-1.845-3.309-2.188-5.086c-0.744-3.849,0.146-5.106,3.511-6.97c5.239-2.901,12.98-4.702,18.683-2.305
			c1.485,0.625,2.127-1.796,0.664-2.411c-7.354-3.092-17.317-0.013-23.521,4.376c-4.291,3.036-1.955,11.922,1.857,14.845
			c5.021,3.85,14.793,3.766,19.971,0.429c6.322-4.075,5.972-13.403,2.439-19.076C157.622,37.45,155.459,38.704,156.313,40.077
			L156.313,40.077z"/>
	</g>
</g>
<g>
	<path fill="#F1584D" d="M283.063,23.431c0,0-9.737,26.836,2.973,34.386c6.469,3.842,16.933,4.043,23.316,2.145
		c13.398-3.983,15.967-18.981,15.967-32.085l0,0C318.127,13.354,296.754,5.845,283.063,23.431z"/>
	<g>
		<path fill="#F1594C" d="M281.858,23.098c-3.197,8.918-5.553,20.398-1.858,29.455c5.12,12.554,27.843,12.691,36.859,4.835
			c5.575-4.857,7.911-11.75,9.01-18.878c0.479-3.103,1.5-7.897,0.655-10.966c-0.801-2.912-3.746-5.905-5.823-7.961
			c-11.505-11.387-28.693-9.077-38.521,2.964c-1.01,1.237,0.748,3.018,1.768,1.768c9.277-11.365,23.991-12.96,34.986-2.964
			c1.964,1.786,5.146,4.946,5.128,7.8c-0.022,3.339-0.291,6.671-0.799,9.97c-1.068,6.928-3.859,13.711-9.878,17.698
			c-6.113,4.049-15.119,3.63-21.892,1.921c-6.786-1.712-9.932-6.545-10.627-13.192c-0.751-7.189,0.977-15.018,3.402-21.783
			C284.814,22.242,282.398,21.592,281.858,23.098z"/>
	</g>
</g>
</svg>
